<svg xmlns="http://www.w3.org/2000/svg" viewBox="0 0 190 46.85">
  <g>
    <path d="M127,20a5.9,5.9,0,0,0,3.84-1.44,5.55,5.55,0,0,0,.62-7.82l-.16-.17A5.78,5.78,0,0,0,128.79,9a5.92,5.92,0,0,1,4.4,1.89,5.55,5.55,0,0,1-.29,7.84h0l-.17.15A6,6,0,0,1,127,20m0-7.3a4.1,4.1,0,0,0-5.39,1.85,3.73,3.73,0,0,0-.37,2,3.8,3.8,0,0,1,.06-3.23,4.09,4.09,0,0,1,5.38-1.86A3.91,3.91,0,0,1,129,14.7a3.9,3.9,0,0,0-2-2m-6.17,5.35a9,9,0,0,0,15,3.05,8.78,8.78,0,0,1-5.39,4.78,8.94,8.94,0,0,1-11.19-5.51A8.43,8.43,0,0,1,121.14,12a8.33,8.33,0,0,0-.29,6.07m-17.73.87H92.29a4.62,4.62,0,0,0,4.46,3.5,5.92,5.92,0,0,0,3.7-1.32,2.14,2.14,0,0,1,3,0,2,2,0,0,1,0,2.86h0l-.08.08a9.94,9.94,0,0,1-6.65,2.46,8.69,8.69,0,1,1,0-17.37,7.24,7.24,0,0,1,1.54.14,8.55,8.55,0,0,1,5.7,4,6.57,6.57,0,0,1,1.13,3.4,2.73,2.73,0,0,1-.29,1,1.91,1.91,0,0,1-1.72,1.24Zm-6.37-5.57a4.6,4.6,0,0,0-3.87,2.08h7.47a4,4,0,0,0-3.6-2.08M84.4,26.43a5,5,0,0,1-3.83-1.87c-1.06-1.35-1-2.87-1-4.49V2.25a2.13,2.13,0,0,1,4.26,0V21c0,.1,0,.21,0,.31s0,.21,0,.31a.59.59,0,0,0,.56.6,2.09,2.09,0,1,1,.11,4.18Zm-16.54.14a9.26,9.26,0,0,1-5-1.45v8.1a2.13,2.13,0,0,1-4.26,0v-22a2.12,2.12,0,0,1,2.14-2.08h0a2.19,2.19,0,0,1,2,1.46,8.81,8.81,0,1,1,5,16Zm0-13.31a4.57,4.57,0,1,0,4.65,4.56A4.6,4.6,0,0,0,67.86,13.26ZM47.13,26.36a8.76,8.76,0,0,1-8.84-8.68,8.86,8.86,0,0,1,17.71,0,8.82,8.82,0,0,1-8.87,8.65Zm0-12.9a4.42,4.42,0,1,0,.06,0ZM34.7,18.92H23.86a4.64,4.64,0,0,0,4.47,3.5A6,6,0,0,0,32,21.1a2.14,2.14,0,0,1,3,0,2,2,0,0,1,0,2.86h0l-.09.08a9.89,9.89,0,0,1-6.65,2.45,8.68,8.68,0,1,1,0-17.36,7.33,7.33,0,0,1,1.55.14,8.49,8.49,0,0,1,5.7,4,6.56,6.56,0,0,1,1.13,3.39,2.94,2.94,0,0,1-.29,1,1.9,1.9,0,0,1-1.71,1.25Zm-6.38-5.57a4.59,4.59,0,0,0-3.86,2.08h7.46a3.93,3.93,0,0,0-3.59-2.08ZM9.22,26.57a9.41,9.41,0,0,1-5-1.45v8.09a2.1,2.1,0,0,1-2.1,2.11h0A2.11,2.11,0,0,1,0,33.24v-22A2.1,2.1,0,0,1,2.14,9.13h0a2.19,2.19,0,0,1,2.05,1.46,8.84,8.84,0,0,1,5-1.53,8.76,8.76,0,1,1,0,17.51Zm0-13.32a4.57,4.57,0,1,0,4.64,4.57,4.6,4.6,0,0,0-4.64-4.57Z" style="fill: #4678ba"/>
    <path d="M189.71,17.68A1.9,1.9,0,0,1,188,18.92H177.15a4.62,4.62,0,0,0,4.47,3.5,5.92,5.92,0,0,0,3.69-1.32,2.14,2.14,0,0,1,3,0,2,2,0,0,1,0,2.86h0l-.08.08a9.93,9.93,0,0,1-6.65,2.45,8.68,8.68,0,1,1,0-17.36,7.24,7.24,0,0,1,1.54.14,8.55,8.55,0,0,1,5.71,4A6.64,6.64,0,0,1,190,16.68a2.85,2.85,0,0,1-.28,1m-8.1-4.32a4.56,4.56,0,0,0-3.87,2.07h7.46a3.92,3.92,0,0,0-3.59-2.07m-14.18,1.07a4.75,4.75,0,0,0-3.28-1.28,4.52,4.52,0,0,0-4.5,4.6,4.31,4.31,0,0,0,1.41,3.15,4.43,4.43,0,0,0,3.24,1.29A4.61,4.61,0,0,0,167.39,21a2.11,2.11,0,0,1,3,.11,2.05,2.05,0,0,1-.07,2.9h0l0,0a8.84,8.84,0,0,1-5.84,2.32h-.14a8.86,8.86,0,0,1-6.13-2.43,8.72,8.72,0,0,1-2.71-6.08,8.37,8.37,0,0,1,2.5-6.16A8.9,8.9,0,0,1,164.07,9a8.75,8.75,0,0,1,6.26,2.46,2,2,0,0,1,.13,2.84h0l-.06.06a2.14,2.14,0,0,1-3,.07m-17,.07a4.3,4.3,0,0,0-2.92-1.15,4.44,4.44,0,0,0-4.37,4.47v6.54a2.11,2.11,0,0,1-4.22,0V11.11a2.12,2.12,0,0,1,4.11-.63,8.52,8.52,0,0,1,10.28,1,2,2,0,0,1,.17,2.85l-.06.06a2.14,2.14,0,0,1-3,.1ZM127.32,22.8a7,7,0,0,1-4.84-5,7.21,7.21,0,0,0,12.88-1.57,6.61,6.61,0,0,0,.13-3.61,6.72,6.72,0,0,1,.74,5.64,7.16,7.16,0,0,1-8.91,4.57M130.51,15a5.23,5.23,0,0,0-5.79-4.56,5.43,5.43,0,0,0-2.58.95A5.29,5.29,0,0,1,125.9,9.3a5.23,5.23,0,0,1,5.79,4.56,5.05,5.05,0,0,1-2.13,4.66,6,6,0,0,0,.7-1.32,4.67,4.67,0,0,0,.25-2.17ZM115.9,4.91a2.67,2.67,0,0,0-4.5,2v4.3h3.34a2.09,2.09,0,1,1,0,4.18H111.4v8.79a2.17,2.17,0,0,1-4.33,0V6.88a7,7,0,0,1,7-6.88,7.1,7.1,0,0,1,4.74,1.83,2.13,2.13,0,0,1,.11,3,2.22,2.22,0,0,1-3,.1" style="fill: #6bb262"/>
    <path d="M189,44.56a3.23,3.23,0,0,1-2.33.87h-2.38V39.32h2.38a3.22,3.22,0,0,1,2.33.87,3.08,3.08,0,0,1,0,4.36h0m-1-3.51a1.78,1.78,0,0,0-1.33-.52h-1v3.69h1a1.81,1.81,0,0,0,1.34-.51,2,2,0,0,0,0-2.66Zm-10.2-1.73h4.61v1.19h-3.27v1.25H182V43h-2.87v1.29h3.31v1.19h-4.65ZM174,41.77a3.6,3.6,0,0,1,1.47.68,1.47,1.47,0,0,1,.47,1.17,1.7,1.7,0,0,1-.61,1.4,2.54,2.54,0,0,1-1.63.5,3.71,3.71,0,0,1-2.59-1l.8-.95a2.79,2.79,0,0,0,1.82.74,1.11,1.11,0,0,0,.64-.16.49.49,0,0,0,.24-.42.47.47,0,0,0-.25-.43,3.51,3.51,0,0,0-1-.36,6.4,6.4,0,0,1-.85-.26,3,3,0,0,1-.61-.33,1.24,1.24,0,0,1-.43-.53,1.79,1.79,0,0,1-.13-.76,1.67,1.67,0,0,1,.59-1.34,2.33,2.33,0,0,1,1.54-.51,3.51,3.51,0,0,1,2.26.78l-.69,1a2.82,2.82,0,0,0-1.59-.6,1,1,0,0,0-.57.15.46.46,0,0,0-.2.4.48.48,0,0,0,.25.45,4.91,4.91,0,0,0,1.06.36m-7.17,3.75a2.63,2.63,0,0,1-1.94-.69,2.74,2.74,0,0,1-.7-2V39.32h1.34v3.46a1.67,1.67,0,0,0,.35,1.12,1.22,1.22,0,0,0,1,.39,1.26,1.26,0,0,0,1-.38,1.55,1.55,0,0,0,.35-1.09v-3.5h1.34v3.46a2.76,2.76,0,0,1-.72,2.06,2.71,2.71,0,0,1-2,.69m-6.73-1.23a1.93,1.93,0,0,0,.85-.17,3.33,3.33,0,0,0,.75-.54l.86.91a3.08,3.08,0,0,1-1.07.79,3.51,3.51,0,0,1-1.43.25,3,3,0,0,1-2.24-.91,3.27,3.27,0,0,1,0-4.49,3.4,3.4,0,0,1,3.62-.66,3.55,3.55,0,0,1,1,.74l-.8.92a3.19,3.19,0,0,0-.74-.52,2,2,0,0,0-.83-.16,1.64,1.64,0,0,0-1.27.55,2.12,2.12,0,0,0,0,2.74,1.61,1.61,0,0,0,1.27.55m-8,1.24a3.12,3.12,0,0,1-2.31-.91,3.19,3.19,0,0,1,0-4.49,3.4,3.4,0,0,1,4.64,0,3.17,3.17,0,0,1-2.33,5.41ZM153.46,41a1.74,1.74,0,0,0-1.32-.56,1.77,1.77,0,0,0-1.32.55,2.07,2.07,0,0,0,0,2.74,1.75,1.75,0,0,0,1.33.55,1.68,1.68,0,0,0,1.31-.55A2,2,0,0,0,153.46,41Zm-9.31.83h2.91v1.21h-2.9v2.37h-1.35V39.32h4.65v1.22h-3.3Zm-11.1-2.53h4.6v1.2h-3.27v1.24h2.88V43h-2.88v1.29h3.31v1.19h-4.64Zm-6.05,0h1.35v4.89h3v1.22H127Zm-4.11,4.28h-1v1.83h-1.34V39.32H123a2.41,2.41,0,0,1,1.71.58,2.05,2.05,0,0,1,.63,1.55,1.92,1.92,0,0,1-.7,1.58,2.73,2.73,0,0,1-1.78.57m.82-2.83a1.26,1.26,0,0,0-.8-.24h-1V42.4h1.07a1.12,1.12,0,0,0,.78-.26,1,1,0,0,0,0-1.37Zm-8.28,4.77a3.16,3.16,0,0,1-2.3-5.41,3.39,3.39,0,0,1,4.63,0,3.17,3.17,0,0,1-2.33,5.41M116.76,41a1.71,1.71,0,0,0-1.33-.56,1.69,1.69,0,0,0-1.31.55,2,2,0,0,0,0,2.73,1.85,1.85,0,0,0,2.64,0A2.06,2.06,0,0,0,116.76,41ZM106,39.32h4.6v1.2h-3.27v1.24h2.88V43h-2.88v1.28h3.31v1.2H106Zm-4.11,4.28h-1v1.84H99.51V39.32H102a2.41,2.41,0,0,1,1.71.58,2.05,2.05,0,0,1,.63,1.55,1.92,1.92,0,0,1-.7,1.58,2.72,2.72,0,0,1-1.77.57m.82-2.83a1.28,1.28,0,0,0-.8-.24h-1V42.4h1.06a1.12,1.12,0,0,0,.78-.26.91.91,0,0,0,.29-.68.86.86,0,0,0-.29-.69Zm-10,6.08-.11-.55c.57-.07.86-.32.86-.77v-.1h-.54V44h1.41v1.17a1.64,1.64,0,0,1-.41,1.23,1.72,1.72,0,0,1-1.2.41m-5.83-5.31v3.89H85.56V39.32H86.8l2.86,3.76V39.32H91v6.11H89.84Zm-7.81-2.22h4.6v1.19H80.4v1.25h2.87V43H80.4v1.29h3.31v1.19H79.07Zm-5.25,6.16-2.46-6.16h1.48l1.59,4.3,1.6-4.3h1.44L75,45.48Zm-5.47-6.16H69.7v6.11H68.35Zm-3.3,6.11-1.33-2h-1v2H61.34V39.32h2.79a2.4,2.4,0,0,1,1.78.62,1.9,1.9,0,0,1,.52,1.41,1.87,1.87,0,0,1-1.31,1.9l1.49,2.18Zm-.24-4.68a1.21,1.21,0,0,0-.78-.22H62.7v1.76h1.36a1.13,1.13,0,0,0,.75-.24.83.83,0,0,0,.27-.64.77.77,0,0,0-.27-.65Zm-8.54,4.68H53.88V39.32h2.38a3.22,3.22,0,0,1,2.33.87,3.07,3.07,0,0,1,0,4.36h0a3.22,3.22,0,0,1-2.33.87m1.33-4.38a1.78,1.78,0,0,0-1.33-.52h-1v3.69h1a1.82,1.82,0,0,0,1.33-.51,2,2,0,0,0,0-2.66Zm-10.73.72a3.88,3.88,0,0,1,1.47.67,1.51,1.51,0,0,1,.47,1.18,1.72,1.72,0,0,1-.62,1.4,2.51,2.51,0,0,1-1.62.5,3.8,3.8,0,0,1-2.59-1l.79-.95a2.89,2.89,0,0,0,1.82.74,1.14,1.14,0,0,0,.65-.16.47.47,0,0,0,.23-.43.49.49,0,0,0-.24-.43,3.82,3.82,0,0,0-1-.35,6.4,6.4,0,0,1-.85-.26,2.76,2.76,0,0,1-.61-.33,1.22,1.22,0,0,1-.43-.53,2,2,0,0,1-.15-.77,1.7,1.7,0,0,1,.6-1.33,2.25,2.25,0,0,1,1.55-.51,3.45,3.45,0,0,1,2.26.78l-.69,1a2.82,2.82,0,0,0-1.59-.6.92.92,0,0,0-.58.15.51.51,0,0,0,0,.84,5.1,5.1,0,0,0,1.06.36Zm-6.14,0a3.76,3.76,0,0,1,1.46.67,1.47,1.47,0,0,1,.47,1.18A1.71,1.71,0,0,1,42,45a2.51,2.51,0,0,1-1.62.5,3.78,3.78,0,0,1-2.59-1l.79-.95a2.89,2.89,0,0,0,1.82.74,1.14,1.14,0,0,0,.65-.16.51.51,0,0,0,0-.86,3.76,3.76,0,0,0-1-.35,6.27,6.27,0,0,1-.84-.26,2.83,2.83,0,0,1-.62-.33,1.38,1.38,0,0,1-.43-.53,2,2,0,0,1-.13-.77,1.66,1.66,0,0,1,.59-1.33,2.33,2.33,0,0,1,1.54-.51,3.45,3.45,0,0,1,2.26.78l-.69,1a2.82,2.82,0,0,0-1.58-.6,1,1,0,0,0-.58.15.51.51,0,0,0,0,.84,5,5,0,0,0,1.07.36Zm-9-2.45h4.59v1.19H33.08v1.25H36V43H33.08v1.29h3.31v1.19H31.76Zm-6.22,2.22v3.89H24.21V39.32h1.24l2.86,3.76V39.32h1.33v6.11H28.49Zm-4.85-2.22H22v6.11H20.69Zm-3.81,2.45a3.49,3.49,0,0,1,1.46.68,1.51,1.51,0,0,1,.48,1.17A1.74,1.74,0,0,1,18.2,45a2.51,2.51,0,0,1-1.62.5,3.69,3.69,0,0,1-2.59-1l.79-.95a2.83,2.83,0,0,0,1.82.74,1.14,1.14,0,0,0,.65-.16.5.5,0,0,0,.23-.42.48.48,0,0,0-.24-.43,3.46,3.46,0,0,0-1-.36,6.27,6.27,0,0,1-.84-.26,2.83,2.83,0,0,1-.62-.33,1.24,1.24,0,0,1-.43-.53,2,2,0,0,1-.13-.76,1.65,1.65,0,0,1,.6-1.34,2.3,2.3,0,0,1,1.53-.51,3.52,3.52,0,0,1,2.27.78l-.7,1a2.82,2.82,0,0,0-1.58-.6,1,1,0,0,0-.58.15.51.51,0,0,0,0,.85,4.47,4.47,0,0,0,1.07.35M9.71,45.53a2.59,2.59,0,0,1-1.94-.7,2.7,2.7,0,0,1-.7-2V39.32H8.41v3.46a1.67,1.67,0,0,0,.34,1.12,1.24,1.24,0,0,0,1,.39,1.27,1.27,0,0,0,1-.38A1.55,1.55,0,0,0,11,42.82v-3.5h1.34v3.46a2.76,2.76,0,0,1-.71,2.06,2.71,2.71,0,0,1-2,.69m-6.59-.09H.22V39.32H3.05a2.2,2.2,0,0,1,1.6.54,1.52,1.52,0,0,1-.39,2.38,2,2,0,0,1,.86.57A1.63,1.63,0,0,1,4.8,45a2.94,2.94,0,0,1-1.68.42m.39-4.77a1.1,1.1,0,0,0-.66-.16H1.53v1.29H2.76c.65,0,1-.22,1-.67a.53.53,0,0,0-.23-.47Zm-.43,2.25H1.53v1.34H3.12c.63,0,1-.22,1-.68s-.33-.66-1-.66" style="fill: #000"/>
  </g>
</svg>
