<svg xmlns="http://www.w3.org/2000/svg" width="24" height="21.637" viewBox="0 0 24 21.637">
  <path d="M21.548,9.707a5.1,5.1,0,0,0-2.1-2.2,5.606,5.606,0,0,0-1.2-3.755,5.667,5.667,0,0,0-3.679-1.938A5.378,5.378,0,0,0,9.627,4.378,3.6,3.6,0,0,0,6.313,4.19a3.4,3.4,0,0,0-1.88,3.317,4.56,4.56,0,0,0-1.2.9,4.792,4.792,0,0,0-1.115,4.266c.448,2.774,3.66,3.442,3.8,3.463l.063.01L8,16.157l1.231-1.248-3.122-.025c-.354-.083-2.461-.657-2.745-2.42A3.631,3.631,0,0,1,4.113,9.3a3.071,3.071,0,0,1,1.169-.8l.52-.167-.089-.545c0-.022-.292-1.836,1.106-2.461a2.479,2.479,0,0,1,2.59.394l.636.582.355-.792a4.342,4.342,0,0,1,4.067-2.472,4.589,4.589,0,0,1,2.858,1.543,4.715,4.715,0,0,1,.855,3.2l-.052.458.416.188A4.117,4.117,0,0,1,20.39,10.2a3.058,3.058,0,0,1,.042,2.711c-.031.084-.063.147-.084.219a10.838,10.838,0,0,1-1,1.231c-.1.115-.2.23-.3.333l.136.126.793.719c1.449-1.6,1.533-1.919,1.563-2.024a.577.577,0,0,0,.042-.114A4.151,4.151,0,0,0,21.548,9.707Z" style="fill: #00b5e2"/>
  <path d="M14.956,9.936a3.132,3.132,0,0,0-3.128,3.13,3.073,3.073,0,0,0,.185,1.074L8.182,18.03l.031,1.762,1.8.042-.021-1.126,1.082.01-.022-1.137,1.137.031,1.627-1.627a2.988,2.988,0,0,0,1.106.2,3.124,3.124,0,0,0,.05-6.247Zm.772,2.691a.772.772,0,1,1,.772-.772h0a.772.772,0,0,1-.772.772Z" style="fill: #2f394d"/>
</svg>
